<svg width="52" height="52" viewBox="0 0 52 52" fill="none" xmlns="http://www.w3.org/2000/svg">
<rect width="52" height="52" rx="26" fill="#FAFAFB"/>
<g clip-path="url(#clip0_1241_7379)">
<path d="M16.27 9.10498C15.25 9.61498 14.48 10.495 14.12 11.575L7.26998 32.175C6.90998 33.255 6.98998 34.425 7.50998 35.445C8.01998 36.465 8.89998 37.225 9.97998 37.585L32.45 45.125C33.54 45.485 34.7 45.405 35.72 44.895C36.74 44.375 37.51 43.505 37.87 42.415L44.72 21.825C45.47 19.585 44.25 17.145 42.01 16.405L19.55 8.86498C18.45 8.50498 17.3 8.58498 16.27 9.10498Z" fill="#FAFAFB"/>
<path d="M27.2502 28.885C26.0302 30.245 24.5102 31.345 22.7402 32.025L21.7302 32.415V22.875L22.7302 23.265C24.5002 23.935 26.0202 25.035 27.2502 26.395C28.1202 24.985 28.6602 23.365 28.7702 21.585C29.0502 17.015 26.1802 12.815 22.2502 11.355L19.0102 10.275C17.5502 9.78499 15.9902 10.585 15.5002 12.055L8.63015 32.655C8.14015 34.125 8.96015 35.715 10.4302 36.195L26.0202 41.405C27.6102 39.715 28.6402 37.475 28.7902 34.975C28.9402 32.745 28.3602 30.635 27.2502 28.885ZM18.2402 22.305V33.005H16.6902V22.305H18.2402Z" fill="#2092C8"/>
<path d="M26.35 27.635C25.48 26.615 24.43 25.755 23.21 25.125V30.155C24.43 29.525 25.49 28.655 26.35 27.635Z" fill="#E43D30"/>
<path d="M41.51 17.785L27.21 13.005C29.13 15.115 30.31 17.905 30.31 20.965C30.31 23.385 29.56 25.695 28.24 27.635C29.56 29.565 30.32 31.885 30.33 34.295C30.33 37.185 29.29 39.845 27.56 41.915L32.94 43.705C34.41 44.195 35.96 43.385 36.45 41.925L43.32 21.325C43.8 19.855 42.98 18.265 41.51 17.785ZM37.72 32.965H35.79L31.81 27.615L35.85 22.265L37.8 22.255L33.75 27.615L37.72 32.965Z" fill="#205C9C"/>
</g>
<defs>
<clipPath id="clip0_1241_7379">
<rect width="37.9" height="36.71" fill="white" transform="translate(7.05005 8.64499)"/>
</clipPath>
</defs>
</svg>
