<svg width="40" height="40" viewBox="0 0 40 40" fill="none" xmlns="http://www.w3.org/2000/svg">
<rect width="40" height="40" rx="20" fill="#F7FBFF"/>
<path d="M20.975 20.165C21.3752 19.8186 21.6962 19.3902 21.9162 18.9088C22.1361 18.4274 22.25 17.9043 22.25 17.375C22.25 16.3804 21.8549 15.4266 21.1517 14.7233C20.4484 14.0201 19.4946 13.625 18.5 13.625C17.5054 13.625 16.5516 14.0201 15.8483 14.7233C15.1451 15.4266 14.75 16.3804 14.75 17.375C14.75 17.9043 14.8639 18.4274 15.0838 18.9088C15.3038 19.3902 15.6248 19.8186 16.025 20.165C14.9751 20.6404 14.0843 21.4081 13.4592 22.3764C12.8341 23.3447 12.5011 24.4725 12.5 25.625C12.5 25.8239 12.579 26.0147 12.7197 26.1553C12.8603 26.296 13.0511 26.375 13.25 26.375C13.4489 26.375 13.6397 26.296 13.7803 26.1553C13.921 26.0147 14 25.8239 14 25.625C14 24.4315 14.4741 23.2869 15.318 22.443C16.1619 21.5991 17.3065 21.125 18.5 21.125C19.6935 21.125 20.8381 21.5991 21.682 22.443C22.5259 23.2869 23 24.4315 23 25.625C23 25.8239 23.079 26.0147 23.2197 26.1553C23.3603 26.296 23.5511 26.375 23.75 26.375C23.9489 26.375 24.1397 26.296 24.2803 26.1553C24.421 26.0147 24.5 25.8239 24.5 25.625C24.4989 24.4725 24.1659 23.3447 23.5408 22.3764C22.9157 21.4081 22.0249 20.6404 20.975 20.165V20.165ZM18.5 19.625C18.055 19.625 17.62 19.493 17.25 19.2458C16.88 18.9986 16.5916 18.6472 16.4213 18.236C16.251 17.8249 16.2064 17.3725 16.2932 16.936C16.3801 16.4996 16.5943 16.0987 16.909 15.784C17.2237 15.4693 17.6246 15.2551 18.061 15.1682C18.4975 15.0814 18.9499 15.126 19.361 15.2963C19.7722 15.4666 20.1236 15.755 20.3708 16.125C20.618 16.495 20.75 16.93 20.75 17.375C20.75 17.9717 20.5129 18.544 20.091 18.966C19.669 19.3879 19.0967 19.625 18.5 19.625ZM27.2825 17.8475C27.2128 17.7772 27.1298 17.7214 27.0384 17.6833C26.947 17.6453 26.849 17.6257 26.75 17.6257C26.651 17.6257 26.553 17.6453 26.4616 17.6833C26.3702 17.7214 26.2872 17.7772 26.2175 17.8475L24.7175 19.3475L24.2525 18.875C24.1828 18.8047 24.0998 18.7489 24.0084 18.7108C23.917 18.6728 23.819 18.6532 23.72 18.6532C23.621 18.6532 23.523 18.6728 23.4316 18.7108C23.3402 18.7489 23.2572 18.8047 23.1875 18.875C23.0478 19.0155 22.9694 19.2056 22.9694 19.4037C22.9694 19.6019 23.0478 19.792 23.1875 19.9325L24.1925 20.9375C24.333 21.0772 24.5231 21.1556 24.7213 21.1556C24.9194 21.1556 25.1095 21.0772 25.25 20.9375L27.2525 18.935C27.3282 18.867 27.3893 18.7843 27.432 18.6919C27.4748 18.5995 27.4983 18.4994 27.5011 18.3977C27.5039 18.296 27.4859 18.1947 27.4484 18.1001C27.4108 18.0055 27.3544 17.9196 27.2825 17.8475V17.8475Z" fill="#0085FF"/>
</svg>
