<svg width="40" height="40" viewBox="0 0 40 40" fill="none" xmlns="http://www.w3.org/2000/svg">
<rect width="40" height="40" rx="20" fill="#F5F4FF"/>
<path fill-rule="evenodd" clip-rule="evenodd" d="M24.6466 14.1673C25.0704 14.4023 25.3334 14.8487 25.3334 15.3333V17.7805C26.1102 18.055 26.6667 18.7959 26.6667 19.6667C26.6667 20.5375 26.1102 21.2783 25.3334 21.5529V24C25.3334 24.4846 25.0704 24.9311 24.6466 25.1661C24.2228 25.4011 23.7049 25.3876 23.2939 25.131L21.9828 24.3123C20.9587 23.6729 19.8361 23.2197 18.6667 22.9673V25.3333C18.6667 25.7015 18.3682 26 18 26H16C15.6319 26 15.3334 25.7015 15.3334 25.3333V22.5427C14.1656 22.1095 13.3334 20.9853 13.3334 19.6667C13.3334 17.973 14.7064 16.6 16.4 16.6H16.4725C18.4209 16.6 20.3301 16.0529 21.9828 15.021L23.2939 14.2024C23.7049 13.9457 24.2228 13.9323 24.6466 14.1673ZM16.6667 22.7351V24.6667H17.3334V22.769C17.112 22.7506 16.8896 22.7393 16.6667 22.7351ZM24 15.3333L22.6889 16.152L22.6667 16.1658C20.8074 17.321 18.6618 17.9333 16.4725 17.9333H16.4C15.4427 17.9333 14.6667 18.7094 14.6667 19.6667C14.6667 20.6239 15.4427 21.4 16.4 21.4H16.4725C18.6618 21.4 20.8074 22.0123 22.6667 23.1675L22.6889 23.1814L24 24V22.4281V16.9052V15.3333Z" fill="#7B61FF"/>
</svg>
