<svg width="24" height="24" viewBox="0 0 24 24" fill="none" xmlns="http://www.w3.org/2000/svg">
<path fill-rule="evenodd" clip-rule="evenodd" d="M12 7.33203C12.3681 7.33203 12.6666 7.63051 12.6666 7.9987L12.6666 15.9987C12.6666 16.3669 12.3681 16.6654 12 16.6654C11.6318 16.6654 11.3333 16.3669 11.3333 15.9987L11.3333 7.9987C11.3333 7.63051 11.6318 7.33203 12 7.33203Z" fill="#A2A9B0"/>
<path fill-rule="evenodd" clip-rule="evenodd" d="M7.33337 11.9987C7.33337 11.6305 7.63185 11.332 8.00004 11.332H16C16.3682 11.332 16.6667 11.6305 16.6667 11.9987C16.6667 12.3669 16.3682 12.6654 16 12.6654H8.00004C7.63185 12.6654 7.33337 12.3669 7.33337 11.9987Z" fill="#A2A9B0"/>
<rect x="0.5" y="0.5" width="23" height="23" rx="3.5" stroke="#DDE1E6"/>
</svg>
