<svg width="48" height="48" viewBox="0 0 48 48" fill="none" xmlns="http://www.w3.org/2000/svg">
<path fill-rule="evenodd" clip-rule="evenodd" d="M24 40C32.8366 40 40 32.8366 40 24C40 15.1634 32.8366 8 24 8C15.1634 8 8 15.1634 8 24C8 32.8366 15.1634 40 24 40ZM24 44C35.0457 44 44 35.0457 44 24C44 12.9543 35.0457 4 24 4C12.9543 4 4 12.9543 4 24C4 35.0457 12.9543 44 24 44Z" fill="#A2A9B0"/>
<path d="M18 18C18 19.1046 17.1046 20 16 20C14.8954 20 14 19.1046 14 18C14 16.8954 14.8954 16 16 16C17.1046 16 18 16.8954 18 18Z" fill="#A2A9B0"/>
<path d="M34 18C34 19.1046 33.1046 20 32 20C30.8954 20 30 19.1046 30 18C30 16.8954 30.8954 16 32 16C33.1046 16 34 16.8954 34 18Z" fill="#A2A9B0"/>
<path fill-rule="evenodd" clip-rule="evenodd" d="M14 30C14 28.8954 14.8954 28 16 28H32C33.1046 28 34 28.8954 34 30C34 31.1046 33.1046 32 32 32H16C14.8954 32 14 31.1046 14 30Z" fill="#A2A9B0"/>
</svg>
