<svg width="40" height="40" viewBox="0 0 40 40" fill="none" xmlns="http://www.w3.org/2000/svg">
<rect width="40" height="40" rx="20" fill="#FFFDF4"/>
<path fill-rule="evenodd" clip-rule="evenodd" d="M20.2108 13.37C20.074 13.322 19.926 13.322 19.7892 13.37L13.7892 15.4753C13.517 15.5708 13.3334 15.8389 13.3334 16.141V23.1585C13.3334 23.4359 13.4885 23.6872 13.7293 23.7998L19.7293 26.6069C19.9016 26.6875 20.0984 26.6875 20.2708 26.6069L26.2708 23.7998C26.5116 23.6872 26.6667 23.4359 26.6667 23.1585V16.1574C26.668 16.0991 26.6624 16.0398 26.6492 15.9809C26.6407 15.9429 26.6293 15.906 26.6152 15.8704C26.5656 15.7451 26.4846 15.6421 26.3852 15.5682C26.3455 15.5386 26.3023 15.5133 26.2562 15.4931C26.239 15.4855 26.2214 15.4787 26.2034 15.4727L20.2108 13.37ZM23.8918 16.141L20 14.7755L19.2749 15.0299L23.0884 16.3679C23.1136 16.3768 23.1385 16.3864 23.163 16.3967L23.8918 16.141ZM16.1082 16.141L17.1667 15.7696L21.0585 17.1352L20 17.5066L16.1082 16.141ZM20.6667 18.7521L22.6667 18.0503V23.8603C22.6667 23.8899 22.6684 23.9191 22.6718 23.9477L20.6667 24.8857V18.7521ZM19.3334 18.7521L14.6667 17.1146V22.7025L19.3334 24.8857V18.7521ZM25.3334 22.7025L24 23.3263V17.6994C24 17.6607 23.9985 17.6222 23.9956 17.584L25.3334 17.1146V22.7025Z" fill="#FFCB45"/>
</svg>
