<svg width="40" height="41" viewBox="0 0 40 41" fill="none" xmlns="http://www.w3.org/2000/svg">
<rect y="0.5" width="40" height="40" rx="20" fill="#FFF4FB"/>
<path fill-rule="evenodd" clip-rule="evenodd" d="M17.4939 16.5061C17.5669 16.5025 17.6404 16.5007 17.7143 16.5007H20.2858C22.2859 16.5007 23.965 17.8533 24.4936 19.6861C24.9906 19.4454 25.3334 18.9361 25.3334 18.3468V17.6771C25.3334 16.291 24.2097 15.1673 22.8236 15.1673H19.4902C18.5886 15.1673 17.8162 15.7206 17.4939 16.5061ZM24.6648 21.0467C24.5988 23.3019 22.8323 25.1502 20.5966 25.2962L18.872 26.8198C17.9814 27.6065 16.5834 26.9711 16.5834 25.7794V25.2276C14.7303 24.8577 13.3334 23.2148 13.3334 21.244V20.9031C13.3334 19.0699 14.4483 17.4985 16.0339 16.8362C16.2713 15.1396 17.7283 13.834 19.4902 13.834H22.8236C24.9461 13.834 26.6667 15.5546 26.6667 17.6771V18.3468C26.6667 19.6199 25.8233 20.6959 24.6648 21.0467ZM19.9122 24.1168L17.9916 25.8135C17.9625 25.8393 17.9167 25.8185 17.9167 25.7794V24.5099C17.9167 24.5009 17.9165 24.4919 17.9161 24.483C17.9107 24.373 17.8729 24.2715 17.812 24.1882C17.7134 24.0532 17.5544 23.9656 17.375 23.9656C15.8793 23.9656 14.6667 22.7471 14.6667 21.244V20.9031C14.6667 19.2117 16.0312 17.8405 17.7143 17.8405H20.2858C21.9689 17.8405 23.3334 19.2245 23.3334 20.9159C23.3334 22.5931 21.9803 23.9656 20.3113 23.9656C20.1644 23.9656 20.0225 24.0193 19.9122 24.1168Z" fill="#FF6093"/>
</svg>
