<svg width="40" height="40" viewBox="0 0 40 40" fill="none" xmlns="http://www.w3.org/2000/svg">
<rect width="40" height="40" rx="20" fill="#F8F8F8"/>
<rect width="14" height="14" transform="translate(13 13)" fill="#F8F8F8"/>
<path d="M24.6667 23.4993H24.0833V22.916C24.0833 22.7613 24.0219 22.6129 23.9125 22.5035C23.8031 22.3941 23.6547 22.3327 23.5 22.3327C23.3453 22.3327 23.1969 22.3941 23.0875 22.5035C22.9781 22.6129 22.9167 22.7613 22.9167 22.916V23.4993H22.3333C22.1786 23.4993 22.0303 23.5608 21.9209 23.6702C21.8115 23.7796 21.75 23.928 21.75 24.0827C21.75 24.2374 21.8115 24.3858 21.9209 24.4952C22.0303 24.6046 22.1786 24.666 22.3333 24.666H22.9167V25.2493C22.9167 25.4041 22.9781 25.5524 23.0875 25.6618C23.1969 25.7712 23.3453 25.8327 23.5 25.8327C23.6547 25.8327 23.8031 25.7712 23.9125 25.6618C24.0219 25.5524 24.0833 25.4041 24.0833 25.2493V24.666H24.6667C24.8214 24.666 24.9697 24.6046 25.0791 24.4952C25.1885 24.3858 25.25 24.2374 25.25 24.0827C25.25 23.928 25.1885 23.7796 25.0791 23.6702C24.9697 23.5608 24.8214 23.4993 24.6667 23.4993ZM20.5833 24.666H16.5C16.3453 24.666 16.1969 24.6046 16.0875 24.4952C15.9781 24.3858 15.9167 24.2374 15.9167 24.0827V15.916C15.9167 15.7613 15.9781 15.6129 16.0875 15.5035C16.1969 15.3941 16.3453 15.3327 16.5 15.3327H19.4167V17.0827C19.4167 17.5468 19.601 17.9919 19.9292 18.3201C20.2574 18.6483 20.7025 18.8327 21.1667 18.8327H22.9167V20.5827C22.9167 20.7374 22.9781 20.8858 23.0875 20.9952C23.1969 21.1046 23.3453 21.166 23.5 21.166C23.6547 21.166 23.8031 21.1046 23.9125 20.9952C24.0219 20.8858 24.0833 20.7374 24.0833 20.5827V18.2493C24.0833 18.2493 24.0833 18.2493 24.0833 18.2143C24.0773 18.1608 24.0655 18.108 24.0483 18.0568V18.0043C24.0203 17.9444 23.9829 17.8892 23.9375 17.841L20.4375 14.341C20.3893 14.2956 20.3341 14.2582 20.2742 14.2302C20.2549 14.2268 20.2351 14.2268 20.2158 14.2302C20.1591 14.1999 20.0982 14.1782 20.035 14.166H16.5C16.0359 14.166 15.5908 14.3504 15.2626 14.6786C14.9344 15.0068 14.75 15.4519 14.75 15.916V24.0827C14.75 24.5468 14.9344 24.9919 15.2626 25.3201C15.5908 25.6483 16.0359 25.8327 16.5 25.8327H20.5833C20.738 25.8327 20.8864 25.7712 20.9958 25.6618C21.1052 25.5524 21.1667 25.4041 21.1667 25.2493C21.1667 25.0946 21.1052 24.9463 20.9958 24.8369C20.8864 24.7275 20.738 24.666 20.5833 24.666ZM20.5833 16.1552L22.0942 17.666H21.1667C21.012 17.666 20.8636 17.6046 20.7542 17.4952C20.6448 17.3858 20.5833 17.2374 20.5833 17.0827V16.1552ZM17.6667 17.666C17.512 17.666 17.3636 17.7275 17.2542 17.8369C17.1448 17.9463 17.0833 18.0946 17.0833 18.2493C17.0833 18.4041 17.1448 18.5524 17.2542 18.6618C17.3636 18.7712 17.512 18.8327 17.6667 18.8327H18.25C18.4047 18.8327 18.5531 18.7712 18.6625 18.6618C18.7719 18.5524 18.8333 18.4041 18.8333 18.2493C18.8333 18.0946 18.7719 17.9463 18.6625 17.8369C18.5531 17.7275 18.4047 17.666 18.25 17.666H17.6667ZM20.5833 22.3327H17.6667C17.512 22.3327 17.3636 22.3941 17.2542 22.5035C17.1448 22.6129 17.0833 22.7613 17.0833 22.916C17.0833 23.0707 17.1448 23.2191 17.2542 23.3285C17.3636 23.4379 17.512 23.4993 17.6667 23.4993H20.5833C20.738 23.4993 20.8864 23.4379 20.9958 23.3285C21.1052 23.2191 21.1667 23.0707 21.1667 22.916C21.1667 22.7613 21.1052 22.6129 20.9958 22.5035C20.8864 22.3941 20.738 22.3327 20.5833 22.3327ZM21.1667 19.9993H17.6667C17.512 19.9993 17.3636 20.0608 17.2542 20.1702C17.1448 20.2796 17.0833 20.428 17.0833 20.5827C17.0833 20.7374 17.1448 20.8858 17.2542 20.9952C17.3636 21.1046 17.512 21.166 17.6667 21.166H21.1667C21.3214 21.166 21.4697 21.1046 21.5791 20.9952C21.6885 20.8858 21.75 20.7374 21.75 20.5827C21.75 20.428 21.6885 20.2796 21.5791 20.1702C21.4697 20.0608 21.3214 19.9993 21.1667 19.9993Z" fill="#58595B"/>
</svg>
